<?xml version="1.0" encoding="UTF-8" standalone="no"?>
<!-- Created with Inkscape (http://www.inkscape.org/) -->

<svg
   width="500"
   height="500"
   viewBox="0 0 132.29166 132.29167"
   version="1.1"
   id="svg5"
   inkscape:version="1.1.2 (0a00cf5339, 2022-02-04)"
   sodipodi:docname="logo_firma.svg"
   inkscape:export-filename="/mnt/winApps/MEGA/MEGAsync/Loghi/logo_firma.png"
   inkscape:export-xdpi="144"
   inkscape:export-ydpi="144"
   xmlns:inkscape="http://www.inkscape.org/namespaces/inkscape"
   xmlns:sodipodi="http://sodipodi.sourceforge.net/DTD/sodipodi-0.dtd"
   xmlns="http://www.w3.org/2000/svg"
   xmlns:svg="http://www.w3.org/2000/svg"
   xmlns:rdf="http://www.w3.org/1999/02/22-rdf-syntax-ns#"
   xmlns:cc="http://creativecommons.org/ns#">
  <sodipodi:namedview
     id="namedview7"
     pagecolor="#505050"
     bordercolor="#eeeeee"
     borderopacity="1"
     inkscape:pageshadow="0"
     inkscape:pageopacity="0"
     inkscape:pagecheckerboard="0"
     inkscape:document-units="mm"
     showgrid="false"
     units="px"
     width="500px"
     inkscape:zoom="1.4142136"
     inkscape:cx="148.49242"
     inkscape:cy="209.3036"
     inkscape:window-width="1920"
     inkscape:window-height="1007"
     inkscape:window-x="0"
     inkscape:window-y="0"
     inkscape:window-maximized="1"
     inkscape:current-layer="g1347" />
  <defs
     id="defs2" />
  <g
     inkscape:label="ombra"
     inkscape:groupmode="layer"
     id="g1347"
     style="display:none">
    <path
       style="fill:none;stroke:#1d1d1d;stroke-width:2.64583;stroke-linecap:round;stroke-linejoin:miter;stroke-miterlimit:4;stroke-dasharray:none;stroke-opacity:1"
       d="m 11.391168,38.980141 c 0,0 19.345999,-26.058704 38.753604,-0.571717 C 69.55238,63.895408 97.865111,109.907 97.865111,109.907"
       id="path1319" />
    <path
       style="fill:none;stroke:#1d1d1d;stroke-width:2.64583;stroke-linecap:round;stroke-linejoin:miter;stroke-miterlimit:4;stroke-dasharray:none;stroke-opacity:1"
       d="M 11.391168,38.980141 C 9.0384669,38.417857 37.875778,-3.506107 77.240555,6.3746092 105.28211,13.413151 22.764306,45.936262 11.405758,85.5633"
       id="path1321"
       sodipodi:nodetypes="csc" />
    <circle
       style="fill:none;stroke:#1d1d1d;stroke-width:1.98438;stroke-linecap:round;stroke-miterlimit:4;stroke-dasharray:none;stroke-opacity:1"
       id="circle1323"
       cx="74.016312"
       cy="47.879498"
       r="1.0858678" />
    <path
       style="font-variation-settings:normal;fill:none;fill-opacity:1;stroke:#1d1d1d;stroke-width:2.64583;stroke-linecap:round;stroke-linejoin:miter;stroke-miterlimit:4;stroke-dasharray:none;stroke-dashoffset:0;stroke-opacity:1;stop-color:#000000"
       d="m 51.2164,45.154757 c 0,0 -23.496077,18.725623 -27.632562,26.247013"
       id="path1325" />
    <path
       style="font-variation-settings:normal;fill:none;fill-opacity:1;stroke:#1d1d1d;stroke-width:2.64583;stroke-linecap:round;stroke-linejoin:round;stroke-miterlimit:4;stroke-dasharray:none;stroke-dashoffset:0;stroke-opacity:1;stop-color:#000000"
       d="M 43.518964,38.766077 C 42.665237,33.136998 60.324401,53.461763 55.0261,60.323221 52.058384,64.166501 35.364188,45.416075 35.364188,45.416075"
       id="path1327"
       sodipodi:nodetypes="csc" />
    <path
       style="font-variation-settings:normal;fill:none;fill-opacity:1;stroke:#1d1d1d;stroke-width:2.64583;stroke-linecap:round;stroke-linejoin:miter;stroke-miterlimit:4;stroke-dasharray:none;stroke-dashoffset:0;stroke-opacity:1;stop-color:#000000"
       d="m 50.585633,73.344177 c 0,0 7.31294,14.827808 13.69455,13.648002 0,0 8.612518,0.459476 13.567815,-8.006218 4.955297,-8.465692 -8.709783,-3.236463 -16.173245,11.607394 -7.463462,14.843845 10.957543,-0.12079 10.957543,-0.12079 0,0 -8.470397,6.753117 -4.075451,8.905067 4.394947,2.151948 8.501151,-1.99361 8.775175,-3.02318 0.274023,-1.02958 -2.172531,-1.38636 -7.862724,4.304128 -5.690195,5.6905 -12.890434,11.09742 -26.813725,-14.932208"
       id="path1329"
       sodipodi:nodetypes="cc" />
    <path
       style="font-variation-settings:normal;fill:none;fill-opacity:1;stroke:#1d1d1d;stroke-width:2.64583;stroke-linecap:round;stroke-linejoin:round;stroke-miterlimit:4;stroke-dasharray:none;stroke-dashoffset:0;stroke-opacity:1;stop-color:#000000"
       d="m 44.917869,77.745592 c 0,0 17.417796,-13.936904 21.125243,-10.80114 3.70744,3.135766 -12.833738,21.073893 -12.833738,21.073893"
       id="path1331"
       sodipodi:nodetypes="csc" />
    <path
       style="font-variation-settings:normal;fill:none;fill-opacity:1;stroke:#1d1d1d;stroke-width:2.64583;stroke-linecap:round;stroke-linejoin:miter;stroke-miterlimit:4;stroke-dasharray:none;stroke-dashoffset:0;stroke-opacity:1;stop-color:#000000"
       d="m 42.65557,85.72637 c 0,0 1.298202,-7.186681 12.943284,15.55247"
       id="path1333" />
    <path
       style="font-variation-settings:normal;fill:none;fill-opacity:1;stroke:#1d1d1d;stroke-width:2.64583;stroke-linecap:round;stroke-linejoin:miter;stroke-miterlimit:4;stroke-dasharray:none;stroke-dashoffset:0;stroke-opacity:1;stop-color:#000000"
       d="m 73.846314,102.11184 c 0,0 6.838812,0.76064 7.490524,-1.76544 0.651711,-2.526078 -2.026539,-2.486248 -4.166093,0.36535 -2.139553,2.85159 -6.754542,10.11578 -17.785743,12.71867 -11.031199,2.6029 21.575056,-14.178148 24.024251,-11.17286 2.449195,3.00529 -2.517722,10.93567 -7.545531,3.21905"
       id="path1335" />
    <path
       style="font-variation-settings:normal;fill:none;fill-opacity:1;stroke:#1d1d1d;stroke-width:2.64583;stroke-linecap:round;stroke-linejoin:miter;stroke-miterlimit:4;stroke-dasharray:none;stroke-dashoffset:0;stroke-opacity:1;stop-color:#000000"
       d="m 85.63892,109.00631 c 2.388842,0.39737 5.728802,-0.0904 3.81595,-1.48151 -1.912846,-1.39111 -2.933634,-0.57357 -2.956118,4.08377 -0.02248,4.65735 0.143678,7.07838 -3.503827,3.41884 -3.647505,-3.65954 -2.260482,-5.10371 -0.975554,-4.13055"
       id="path1337" />
    <path
       style="font-variation-settings:normal;fill:none;fill-opacity:1;stroke:#1d1d1d;stroke-width:2.64583;stroke-linecap:round;stroke-linejoin:miter;stroke-miterlimit:4;stroke-dasharray:none;stroke-dashoffset:0;stroke-opacity:1;stop-color:#000000"
       d="m 85.654607,117.09127 c 2.04523,1.32624 5.683086,2.38839 7.958351,0.0444 2.27526,-2.34399 -0.96484,-7.26901 -4.291813,-2.11869 -3.326963,5.15033 0.599264,6.96021 3.485523,8.40343"
       id="path1339" />
    <path
       style="font-variation-settings:normal;fill:none;fill-opacity:1;stroke:#1d1d1d;stroke-width:2.64583;stroke-linecap:round;stroke-linejoin:miter;stroke-miterlimit:4;stroke-dasharray:none;stroke-dashoffset:0;stroke-opacity:1;stop-color:#000000"
       d="m 38.939918,59.79856 c -1.563227,1.588545 -3.761814,3.511725 -2.360762,5.693165 1.594034,2.481912 5.616184,-0.318558 8.326369,-3.459402 2.594605,-3.006899 -3.045424,-4.980227 -4.183998,-3.538906 -1.138577,1.441324 -0.05903,3.650414 4.28222,6.208642"
       id="path1341"
       sodipodi:nodetypes="csssc" />
    <path
       style="font-variation-settings:normal;fill:none;fill-opacity:1;stroke:#1d1d1d;stroke-width:2.64583;stroke-linecap:round;stroke-linejoin:miter;stroke-miterlimit:4;stroke-dasharray:none;stroke-dashoffset:0;stroke-opacity:1;stop-color:#000000"
       d="m 45.003747,64.702059 c 0,0 4.725067,2.816469 7.247276,2.24955 2.081683,-0.467902 0.381855,-2.282409 -3.345512,-3.041497 -1.976589,-0.402538 -9.143699,4.281253 -6.698398,7.636793 2.445299,3.35554 4.503494,2.002235 4.503494,2.002235"
       id="path1343"
       sodipodi:nodetypes="csssc" />
    <path
       style="font-variation-settings:normal;fill:none;fill-opacity:1;stroke:#1d1d1d;stroke-width:2.64583;stroke-linecap:round;stroke-linejoin:miter;stroke-miterlimit:4;stroke-dasharray:none;stroke-dashoffset:0;stroke-opacity:1;stop-color:#000000"
       d="m 80.295718,73.52317 c 0,0 5.022427,-4.766865 -2.498504,-19.263481 0,0 15.526611,32.292 20.678557,29.306061 5.151949,-2.985941 0.16217,-18.678635 -1.950711,-23.205017 -2.112883,-4.526383 9.36137,23.397767 18.48239,14.424853 9.12102,-8.972922 -3.37038,-32.562247 -10.75003,-36.119619 -7.379658,-3.557374 -14.230824,4.092389 -10.844761,13.727344 3.386066,9.634955 21.421371,-12.556737 19.390161,-23.03061"
       id="path1345" />
  </g>
  <g
     inkscape:label="tracciato"
     inkscape:groupmode="layer"
     id="layer1"
     style="display:inline"
     sodipodi:insensitive="true">
    <path
       style="fill:none;stroke:#ffffff;stroke-width:1.5875;stroke-linecap:round;stroke-linejoin:miter;stroke-miterlimit:4;stroke-dasharray:none;stroke-opacity:1"
       d="m 11.391168,38.980141 c 0,0 19.345999,-26.058704 38.753604,-0.571717 C 69.55238,63.895408 97.865111,109.907 97.865111,109.907"
       id="path167" />
    <path
       style="fill:none;stroke:#ffffff;stroke-width:1.5875;stroke-linecap:round;stroke-linejoin:miter;stroke-miterlimit:4;stroke-dasharray:none;stroke-opacity:1"
       d="M 11.391168,38.980141 C 9.0384669,38.417857 37.875778,-3.506107 77.240555,6.3746092 105.28211,13.413151 22.764306,45.936262 11.405758,85.5633"
       id="path1019"
       sodipodi:nodetypes="csc" />
    <circle
       style="fill:none;stroke:#ffffff;stroke-width:1.00326;stroke-linecap:round;stroke-miterlimit:4;stroke-dasharray:none"
       id="path1045"
       cx="74.016312"
       cy="47.879498"
       r="1.0858678" />
    <path
       style="font-variation-settings:normal;vector-effect:none;fill:none;fill-opacity:1;stroke:#ffffff;stroke-width:1.5875;stroke-linecap:round;stroke-linejoin:miter;stroke-miterlimit:4;stroke-dasharray:none;stroke-dashoffset:0;stroke-opacity:1;-inkscape-stroke:none;stop-color:#000000"
       d="m 51.2164,45.154757 c 0,0 -23.496077,18.725623 -27.632562,26.247013"
       id="path1361" />
    <path
       style="font-variation-settings:normal;vector-effect:none;fill:none;fill-opacity:1;stroke:#ffffff;stroke-width:1.5875;stroke-linecap:round;stroke-linejoin:round;stroke-miterlimit:4;stroke-dasharray:none;stroke-dashoffset:0;stroke-opacity:1;-inkscape-stroke:none;stop-color:#000000"
       d="M 43.518964,38.766077 C 42.665237,33.136998 60.324401,53.461763 55.0261,60.323221 52.058384,64.166501 35.364188,45.416075 35.364188,45.416075"
       id="path1571"
       sodipodi:nodetypes="csc" />
    <path
       style="font-variation-settings:normal;vector-effect:none;fill:none;fill-opacity:1;stroke:#ffffff;stroke-width:1.5875;stroke-linecap:round;stroke-linejoin:miter;stroke-miterlimit:4;stroke-dasharray:none;stroke-dashoffset:0;stroke-opacity:1;-inkscape-stroke:none;stop-color:#000000"
       d="m 50.585633,73.344177 c 0,0 7.31294,14.827808 13.69455,13.648002 0,0 8.612518,0.459476 13.567815,-8.006218 4.955297,-8.465692 -8.709783,-3.236463 -16.173245,11.607394 -7.463462,14.843845 10.957543,-0.12079 10.957543,-0.12079 0,0 -8.470397,6.753117 -4.075451,8.905067 4.394947,2.151948 8.501151,-1.99361 8.775175,-3.02318 0.274023,-1.02958 -2.172531,-1.38636 -7.862724,4.304128 -5.690195,5.6905 -12.890434,11.09742 -26.813725,-14.932208"
       id="path1361-6"
       sodipodi:nodetypes="cc" />
    <path
       style="font-variation-settings:normal;vector-effect:none;fill:none;fill-opacity:1;stroke:#ffffff;stroke-width:1.5875;stroke-linecap:round;stroke-linejoin:round;stroke-miterlimit:4;stroke-dasharray:none;stroke-dashoffset:0;stroke-opacity:1;-inkscape-stroke:none;stop-color:#000000"
       d="m 44.917869,77.745592 c 0,0 17.417796,-13.936904 21.125243,-10.80114 3.70744,3.135766 -12.833738,21.073893 -12.833738,21.073893"
       id="path1571-7"
       sodipodi:nodetypes="csc" />
    <path
       style="font-variation-settings:normal;vector-effect:none;fill:none;fill-opacity:1;stroke:#ffffff;stroke-width:1.5875;stroke-linecap:round;stroke-linejoin:miter;stroke-miterlimit:4;stroke-dasharray:none;stroke-dashoffset:0;stroke-opacity:1;-inkscape-stroke:none;stop-color:#000000"
       d="m 42.65557,85.72637 c 0,0 1.298202,-7.186681 12.943284,15.55247"
       id="path4146" />
    <path
       style="font-variation-settings:normal;vector-effect:none;fill:none;fill-opacity:1;stroke:#ffffff;stroke-width:1.5875;stroke-linecap:round;stroke-linejoin:miter;stroke-miterlimit:4;stroke-dasharray:none;stroke-dashoffset:0;stroke-opacity:1;-inkscape-stroke:none;stop-color:#000000"
       d="m 73.846314,102.11184 c 0,0 6.838812,0.76064 7.490524,-1.76544 0.651711,-2.526078 -2.026539,-2.486248 -4.166093,0.36535 -2.139553,2.85159 -6.754542,10.11578 -17.785743,12.71867 -11.031199,2.6029 21.575056,-14.178148 24.024251,-11.17286 2.449195,3.00529 -2.517722,10.93567 -7.545531,3.21905"
       id="path4312" />
    <path
       style="font-variation-settings:normal;vector-effect:none;fill:none;fill-opacity:1;stroke:#ffffff;stroke-width:1.5875;stroke-linecap:round;stroke-linejoin:miter;stroke-miterlimit:4;stroke-dasharray:none;stroke-dashoffset:0;stroke-opacity:1;-inkscape-stroke:none;stop-color:#000000"
       d="m 85.63892,109.00631 c 2.388842,0.39737 5.728802,-0.0904 3.81595,-1.48151 -1.912846,-1.39111 -2.933634,-0.57357 -2.956118,4.08377 -0.02248,4.65735 0.143678,7.07838 -3.503827,3.41884 -3.647505,-3.65954 -2.260482,-5.10371 -0.975554,-4.13055"
       id="path4314" />
    <path
       style="font-variation-settings:normal;vector-effect:none;fill:none;fill-opacity:1;stroke:#ffffff;stroke-width:1.5875;stroke-linecap:round;stroke-linejoin:miter;stroke-miterlimit:4;stroke-dasharray:none;stroke-dashoffset:0;stroke-opacity:1;-inkscape-stroke:none;stop-color:#000000"
       d="m 85.654607,117.09127 c 2.04523,1.32624 5.683086,2.38839 7.958351,0.0444 2.27526,-2.34399 -0.96484,-7.26901 -4.291813,-2.11869 -3.326963,5.15033 0.599264,6.96021 3.485523,8.40343"
       id="path4316" />
    <path
       style="font-variation-settings:normal;fill:none;fill-opacity:1;stroke:#ffffff;stroke-width:1.5875;stroke-linecap:round;stroke-linejoin:miter;stroke-miterlimit:4;stroke-dasharray:none;stroke-dashoffset:0;stroke-opacity:1;stop-color:#000000"
       d="m 38.939918,59.79856 c -1.563227,1.588545 -3.761814,3.511725 -2.360762,5.693165 1.594034,2.481912 5.616184,-0.318558 8.326369,-3.459402 2.594605,-3.006899 -3.045424,-4.980227 -4.183998,-3.538906 -1.138577,1.441324 -0.05903,3.650414 4.28222,6.208642"
       id="path4511"
       sodipodi:nodetypes="csssc" />
    <path
       style="font-variation-settings:normal;vector-effect:none;fill:none;fill-opacity:1;stroke:#ffffff;stroke-width:1.5875;stroke-linecap:round;stroke-linejoin:miter;stroke-miterlimit:4;stroke-dasharray:none;stroke-dashoffset:0;stroke-opacity:1;-inkscape-stroke:none;stop-color:#000000"
       d="m 45.003747,64.702059 c 0,0 4.725067,2.816469 7.247276,2.24955 2.081683,-0.467902 0.381855,-2.282409 -3.345512,-3.041497 -1.976589,-0.402538 -9.143699,4.281253 -6.698398,7.636793 2.445299,3.35554 4.503494,2.002235 4.503494,2.002235"
       id="path4546"
       sodipodi:nodetypes="csssc" />
    <path
       style="font-variation-settings:normal;vector-effect:none;fill:none;fill-opacity:1;stroke:#ffffff;stroke-width:1.70518;stroke-linecap:round;stroke-linejoin:miter;stroke-miterlimit:4;stroke-dasharray:none;stroke-dashoffset:0;stroke-opacity:1;-inkscape-stroke:none;stop-color:#000000"
       d="m 80.295718,73.52317 c 0,0 5.022427,-4.766865 -2.498504,-19.263481 0,0 15.526611,32.292 20.678557,29.306061 5.151949,-2.985941 0.16217,-18.678635 -1.950711,-23.205017 -2.112883,-4.526383 9.36137,23.397767 18.48239,14.424853 9.12102,-8.972922 -3.37038,-32.562247 -10.75003,-36.119619 -7.379658,-3.557374 -14.230824,4.092389 -10.844761,13.727344 3.386066,9.634955 21.421371,-12.556737 19.390161,-23.03061"
       id="path4776" />
  </g>
  <g
     inkscape:groupmode="layer"
     id="layer2"
     inkscape:label="cerchio_guida"
     sodipodi:insensitive="true"
     style="display:none">
    <circle
       style="opacity:0.2;fill:none;stroke:#000000;stroke-width:0.264583;stroke-linecap:round;stroke-linejoin:round;stroke-miterlimit:4;stroke-dasharray:none"
       id="path4986"
       cx="66.172699"
       cy="66.252487"
       r="66.152542" />
  </g>
  <metadata
     id="metadata169">
    <rdf:RDF>
      <cc:Work
         rdf:about="">
        <cc:license
           rdf:resource="http://creativecommons.org/licenses/by-nd/4.0/" />
      </cc:Work>
      <cc:License
         rdf:about="http://creativecommons.org/licenses/by-nd/4.0/">
        <cc:permits
           rdf:resource="http://creativecommons.org/ns#Reproduction" />
        <cc:permits
           rdf:resource="http://creativecommons.org/ns#Distribution" />
        <cc:requires
           rdf:resource="http://creativecommons.org/ns#Notice" />
        <cc:requires
           rdf:resource="http://creativecommons.org/ns#Attribution" />
      </cc:License>
    </rdf:RDF>
  </metadata>
</svg>
