<?xml version="1.0" encoding="UTF-8" standalone="no"?>
<!-- Generator: Adobe Illustrator 24.1.0, SVG Export Plug-In . SVG Version: 6.00 Build 0)  -->

<svg
   version="1.1"
   id="Layer_1"
   x="0px"
   y="0px"
   viewBox="0 0 35.400002 26.5"
   xml:space="preserve"
   sodipodi:docname="email.svg"
   inkscape:version="1.1.2 (0a00cf5339, 2022-02-04)"
   width="35.400002"
   height="26.5"
   inkscape:export-filename="/home/emanuele/Scaricati/png_sito/email.png"
   inkscape:export-xdpi="542.37286"
   inkscape:export-ydpi="542.37286"
   xmlns:inkscape="http://www.inkscape.org/namespaces/inkscape"
   xmlns:sodipodi="http://sodipodi.sourceforge.net/DTD/sodipodi-0.dtd"
   xmlns="http://www.w3.org/2000/svg"
   xmlns:svg="http://www.w3.org/2000/svg"><defs
   id="defs13" /><sodipodi:namedview
   id="namedview11"
   pagecolor="#777777"
   bordercolor="#666666"
   borderopacity="1.0"
   inkscape:pageshadow="2"
   inkscape:pageopacity="0"
   inkscape:pagecheckerboard="false"
   showgrid="false"
   inkscape:zoom="22.768838"
   inkscape:cx="16.382039"
   inkscape:cy="14.186055"
   inkscape:window-width="1920"
   inkscape:window-height="1007"
   inkscape:window-x="0"
   inkscape:window-y="0"
   inkscape:window-maximized="1"
   inkscape:current-layer="layer2"
   fit-margin-top="0"
   fit-margin-left="0"
   fit-margin-right="0"
   fit-margin-bottom="0" />
<style
   type="text/css"
   id="style2">
	.st0{fill:#FFFFFF;stroke:#000000;stroke-width:2;stroke-miterlimit:10;}
</style>


<g
   inkscape:groupmode="layer"
   id="layer1"
   inkscape:label="Layer 1"
   style="display:none"><g
     id="g8"
     style="fill:#808080"
     transform="translate(-13.4,-25.8)">
	<path
   d="M 45.5,25.8 H 16.7 c -1.8,0 -3.3,1.5 -3.3,3.5 v 19.5 c 0,1.9 1.5,3.5 3.3,3.5 h 28.8 c 1.8,0 3.3,-1.5 3.3,-3.5 V 29.2 C 48.7,27.3 47.3,25.8 45.5,25.8 Z M 47,48.7 c 0,0.9 -0.7,1.6 -1.5,1.6 H 16.7 c -0.8,0 -1.5,-0.7 -1.5,-1.6 V 29.2 c 0,-0.9 0.7,-1.6 1.5,-1.6 h 28.8 c 0.8,0 1.5,0.7 1.5,1.6 z M 45.5,29.5 c 0.4,0.4 0.4,1 0,1.3 0,0 0,0 0,0 l -7.8,8.2 7.5,8.1 c 0.3,0.4 0.3,1 0,1.3 -0.4,0.4 -0.9,0.4 -1.3,0 l -7.5,-8.1 -2.2,2.3 c -1.8,1.8 -4.6,1.8 -6.4,0 l -2.2,-2.3 -7.5,8.1 c -0.3,0.4 -0.9,0.4 -1.3,0 -0.4,-0.4 -0.4,-1 0,-1.3 L 24.3,39 16.5,30.9 c -0.4,-0.4 -0.4,-1 0,-1.3 0.4,-0.3 0.9,-0.4 1.3,0 L 29,41.4 c 1.1,1.1 2.8,1.1 3.8,0 L 44,29.6 c 0.6,-0.5 1.1,-0.5 1.5,-0.1 0,0 0,0 0,0 z"
   id="path6"
   style="fill:#808080" />
</g></g><g
   inkscape:groupmode="layer"
   id="layer2"
   inkscape:label="Layer 2"><path
     style="font-variation-settings:normal;opacity:1;fill:#808080;fill-opacity:1;stroke:none;stroke-width:1;stroke-linecap:round;stroke-linejoin:round;stroke-miterlimit:4;stroke-dasharray:none;stroke-dashoffset:0;stroke-opacity:1;stop-color:#000000;stop-opacity:1"
     d="M 30.6,3.8 17.507948,17.695654 4.2092692,3.6731203 Z"
     id="path928" /><path
     style="font-variation-settings:normal;fill:#808080;fill-opacity:1;stroke:none;stroke-width:0.644883;stroke-linecap:round;stroke-linejoin:round;stroke-miterlimit:4;stroke-dasharray:none;stroke-dashoffset:0;stroke-opacity:1;stop-color:#000000"
     d="M 21.736134,24.114144 12.823378,15.625532 3.7699551,24.191653 Z"
     id="path928-6" /><path
     style="font-variation-settings:normal;fill:#808080;fill-opacity:1;stroke:none;stroke-width:0.644883;stroke-linecap:round;stroke-linejoin:round;stroke-miterlimit:4;stroke-dasharray:none;stroke-dashoffset:0;stroke-opacity:1;stop-color:#000000"
     d="m 31.077334,24.114144 -8.912756,-8.488612 -9.053423,8.566121 z"
     id="path928-6-7" /><path
     style="font-variation-settings:normal;opacity:1;vector-effect:none;fill:#808080;fill-opacity:1;stroke:none;stroke-width:6;stroke-linecap:butt;stroke-linejoin:miter;stroke-miterlimit:4;stroke-dasharray:none;stroke-dashoffset:0;stroke-opacity:1;-inkscape-stroke:none;stop-color:#000000;stop-opacity:1"
     d="M 3.5743315,7.3998644 V 22.350782 l 6.3334391,-6.939394 z"
     id="path1259" /><path
     style="font-variation-settings:normal;vector-effect:none;fill:#808080;fill-opacity:1;stroke:none;stroke-width:6;stroke-linecap:butt;stroke-linejoin:miter;stroke-miterlimit:4;stroke-dasharray:none;stroke-dashoffset:0;stroke-opacity:1;-inkscape-stroke:none;stop-color:#000000"
     d="M 31.498715,7.3998641 V 22.350782 l -6.333439,-6.939394 z"
     id="path1259-3" /></g></svg>
