<?xml version="1.0" encoding="UTF-8" standalone="no"?>
<svg
   role="img"
   viewBox="0 0 24 23.405735"
   version="1.1"
   id="svg6"
   sodipodi:docname="github.svg"
   width="24"
   height="23.405735"
   inkscape:version="1.1.2 (0a00cf5339, 2022-02-04)"
   inkscape:export-filename="/home/emanuele/Scaricati/png_sito/github.png"
   inkscape:export-xdpi="600"
   inkscape:export-ydpi="600"
   xmlns:inkscape="http://www.inkscape.org/namespaces/inkscape"
   xmlns:sodipodi="http://sodipodi.sourceforge.net/DTD/sodipodi-0.dtd"
   xmlns="http://www.w3.org/2000/svg"
   xmlns:svg="http://www.w3.org/2000/svg"
   xmlns:rdf="http://www.w3.org/1999/02/22-rdf-syntax-ns#"
   xmlns:cc="http://creativecommons.org/ns#"
   xmlns:dc="http://purl.org/dc/elements/1.1/">
  <defs
     id="defs10" />
  <sodipodi:namedview
     id="namedview8"
     pagecolor="#aeaeae"
     bordercolor="#666666"
     borderopacity="1.0"
     inkscape:pageshadow="2"
     inkscape:pageopacity="0"
     inkscape:pagecheckerboard="true"
     showgrid="false"
     fit-margin-top="0"
     fit-margin-left="0"
     fit-margin-right="0"
     fit-margin-bottom="0"
     inkscape:zoom="26.833333"
     inkscape:cx="9.4658386"
     inkscape:cy="13.78882"
     inkscape:window-width="1920"
     inkscape:window-height="1007"
     inkscape:window-x="0"
     inkscape:window-y="0"
     inkscape:window-maximized="1"
     inkscape:current-layer="svg6" />
  <title
     id="title2">GitHub icon</title>
  <path
     fill="#ffffff"
     d="M 12,0 C 5.37,0 0,5.373 0,12 c 0,5.303 3.438,9.8 8.205,11.385 0.6,0.113 0.82,-0.258 0.82,-0.577 0,-0.285 -0.01,-1.04 -0.015,-2.04 -3.338,0.724 -4.042,-1.61 -4.042,-1.61 -0.546,-1.385 -1.335,-1.755 -1.335,-1.755 -1.087,-0.744 0.084,-0.729 0.084,-0.729 1.205,0.084 1.838,1.236 1.838,1.236 1.07,1.835 2.809,1.305 3.495,0.998 0.108,-0.776 0.417,-1.305 0.76,-1.605 -2.665,-0.3 -5.466,-1.332 -5.466,-5.93 0,-1.31 0.465,-2.38 1.235,-3.22 C 5.444,7.85 5.039,6.63 5.684,4.977 c 0,0 1.005,-0.322 3.3,1.23 0.96,-0.267 1.98,-0.399 3,-0.405 1.02,0.006 2.04,0.138 3,0.405 2.28,-1.552 3.285,-1.23 3.285,-1.23 0.645,1.653 0.24,2.873 0.12,3.176 0.765,0.84 1.23,1.91 1.23,3.22 0,4.61 -2.805,5.625 -5.475,5.92 0.42,0.36 0.81,1.096 0.81,2.22 0,1.606 -0.015,2.896 -0.015,3.286 0,0.315 0.21,0.69 0.825,0.57 C 20.565,21.795 24,17.295 24,12 24,5.373 18.627,0 12,0"
     id="path4"
     inkscape:export-filename="/home/emanuele/Scaricati/png_sito/github.png"
     inkscape:export-xdpi="96"
     inkscape:export-ydpi="96"
     style="fill:#808080" />
  <metadata
     id="metadata12">
    <rdf:RDF>
      <cc:Work
         rdf:about="">
        <dc:title>GitHub icon</dc:title>
      </cc:Work>
    </rdf:RDF>
  </metadata>
</svg>
